<?xml version="1.0" encoding="UTF-8"?>
<svg width="700pt" height="700pt" version="1.1" viewBox="0 0 700 700" xmlns="http://www.w3.org/2000/svg" xmlns:xlink="http://www.w3.org/1999/xlink">

 <g>
  <path d="m265.06 289.77h30.969l-15.277-47.578z"/>
  <path d="m418.31 237.68c-2.6055-1.4219-6.4961-2.1328-11.691-2.1328h-27.887v32.484h27.188c5.4023 0 9.4531-0.65625 12.152-1.9727 4.7812-2.2969 7.1719-6.8359 7.1719-13.621 0.007812-7.3203-2.3164-12.242-6.9336-14.758z"/>
  <path d="m338.87 58c-119.66 0-217 97.352-217 217 0 41.434 11.723 81.633 33.926 116.45l-35.152 92.344c-0.875 2.2891-0.28125 4.8711 1.5 6.5508 1.1484 1.0859 2.6445 1.6562 4.1562 1.6562 0.83594 0 1.6797-0.16797 2.4766-0.52734l86.023-38.5c36.535 25.547 79.363 39.027 124.08 39.027 119.67 0 217-97.352 217-217 0-119.66-97.344-217-217.01-217zm-28.176 277.46-7.9805-24.852h-44.527l-8.1992 24.852h-26.426l43.164-120.91h28.59l42.777 120.91zm141.86 0h-27.887c-0.76562-2.6836-1.3086-4.8398-1.6406-6.4805-0.65625-3.3867-1.0078-6.8672-1.0586-10.414l-0.16406-11.238c-0.11328-7.7109-1.4453-12.852-4.0039-15.422-2.5586-2.5703-7.3594-3.8516-14.391-3.8516h-24.672v47.414h-24.684l-0.003906-120.92h57.824c8.2695 0.16406 14.633 1.2031 19.086 3.1211 4.4531 1.9141 8.2266 4.7305 11.316 8.4492 2.5586 3.0625 4.582 6.4531 6.0703 10.168 1.5 3.7188 2.2383 7.957 2.2383 12.719 0 5.7383-1.4453 11.391-4.3398 16.941-2.8945 5.5508-7.6875 9.4766-14.359 11.77 5.5781 2.2383 9.5273 5.4258 11.855 9.5586 2.3203 4.1289 3.4883 10.434 3.4883 18.91v8.1211c0 5.5234 0.21875 9.2695 0.66797 11.238 0.66797 3.1211 2.2188 5.4141 4.6602 6.8867v3.0312z"/>
  <use x="70" y="644" xlink:href="#v"/>
  <use x="90.550781" y="644" xlink:href="#c"/>
  <use x="104.359375" y="644" xlink:href="#a"/>
  <use x="123.347656" y="644" xlink:href="#k"/>
  <use x="142.242188" y="644" xlink:href="#b"/>
  <use x="155.628906" y="644" xlink:href="#a"/>
  <use x="174.617188" y="644" xlink:href="#f"/>
  <use x="204.410156" y="644" xlink:href="#j"/>
  <use x="224.453125" y="644" xlink:href="#i"/>
  <use x="252.453125" y="644" xlink:href="#e"/>
  <use x="269.046875" y="644" xlink:href="#d"/>
  <use x="288.285156" y="644" xlink:href="#c"/>
  <use x="302.09375" y="644" xlink:href="#u"/>
  <use x="322.136719" y="644" xlink:href="#h"/>
  <use x="342.070312" y="644" xlink:href="#t"/>
  <use x="368.484375" y="644" xlink:href="#f"/>
  <use x="388.527344" y="644" xlink:href="#a"/>
  <use x="407.515625" y="644" xlink:href="#s"/>
  <use x="417.117188" y="644" xlink:href="#g"/>
  <use x="426.710938" y="644" xlink:href="#e"/>
  <use x="443.3125" y="644" xlink:href="#b"/>
  <use x="456.695312" y="644" xlink:href="#g"/>
  <use x="70" y="672" xlink:href="#r"/>
  <use x="82.183594" y="672" xlink:href="#c"/>
  <use x="95.992188" y="672" xlink:href="#d"/>
  <use x="115.226562" y="672" xlink:href="#q"/>
  <use x="154.152344" y="672" xlink:href="#b"/>
  <use x="167.535156" y="672" xlink:href="#p"/>
  <use x="187.46875" y="672" xlink:href="#a"/>
  <use x="216.207031" y="672" xlink:href="#o"/>
  <use x="239.640625" y="672" xlink:href="#d"/>
  <use x="258.878906" y="672" xlink:href="#h"/>
  <use x="278.8125" y="672" xlink:href="#n"/>
  <use x="308.492188" y="672" xlink:href="#m"/>
  <use x="329.015625" y="672" xlink:href="#c"/>
  <use x="342.820312" y="672" xlink:href="#d"/>
  <use x="362.058594" y="672" xlink:href="#l"/>
  <use x="371.65625" y="672" xlink:href="#a"/>
  <use x="390.648438" y="672" xlink:href="#e"/>
  <use x="407.242188" y="672" xlink:href="#b"/>
 </g>
</svg>
