<?xml version="1.0" encoding="UTF-8"?>
<svg width="700pt" height="700pt" version="1.1" viewBox="0 0 700 700" xmlns="http://www.w3.org/2000/svg" xmlns:xlink="http://www.w3.org/1999/xlink">

 <g>
  <path d="m554.4 249.22-97.199 97.246-97.27-97.246z"/>
  <path d="m145.6 386.15 82.246-212.3h37.289l86.078 212.3h-38.891l-21.691-56.758h-86.691l-21.047 56.758zm133.88-85.738-19.77-52.277c-6.8047-18.93-11.367-31.988-13.699-39.219-3.625 13.176-7.4492 25.078-11.484 35.723l-20.391 55.77z"/>
  <use x="70" y="644" xlink:href="#w"/>
  <use x="90.550781" y="644" xlink:href="#d"/>
  <use x="104.359375" y="644" xlink:href="#a"/>
  <use x="123.347656" y="644" xlink:href="#l"/>
  <use x="142.242188" y="644" xlink:href="#c"/>
  <use x="155.628906" y="644" xlink:href="#a"/>
  <use x="174.617188" y="644" xlink:href="#k"/>
  <use x="204.410156" y="644" xlink:href="#j"/>
  <use x="224.453125" y="644" xlink:href="#i"/>
  <use x="252.453125" y="644" xlink:href="#h"/>
  <use x="272.726562" y="644" xlink:href="#a"/>
  <use x="291.71875" y="644" xlink:href="#b"/>
  <use x="310.953125" y="644" xlink:href="#e"/>
  <use x="330.886719" y="644" xlink:href="#g"/>
  <use x="360.679688" y="644" xlink:href="#v"/>
  <use x="382.238281" y="644" xlink:href="#b"/>
  <use x="401.476562" y="644" xlink:href="#e"/>
  <use x="421.40625" y="644" xlink:href="#g"/>
  <use x="451.199219" y="644" xlink:href="#u"/>
  <use x="472.898437" y="644" xlink:href="#t"/>
  <use x="482.492187" y="644" xlink:href="#f"/>
  <use x="70" y="672" xlink:href="#s"/>
  <use x="82.183594" y="672" xlink:href="#d"/>
  <use x="95.992188" y="672" xlink:href="#b"/>
  <use x="115.226562" y="672" xlink:href="#f"/>
  <use x="154.152344" y="672" xlink:href="#c"/>
  <use x="167.535156" y="672" xlink:href="#r"/>
  <use x="187.46875" y="672" xlink:href="#a"/>
  <use x="216.207031" y="672" xlink:href="#q"/>
  <use x="239.640625" y="672" xlink:href="#b"/>
  <use x="258.878906" y="672" xlink:href="#p"/>
  <use x="278.8125" y="672" xlink:href="#e"/>
  <use x="308.492188" y="672" xlink:href="#o"/>
  <use x="329.015625" y="672" xlink:href="#d"/>
  <use x="342.820312" y="672" xlink:href="#b"/>
  <use x="362.058594" y="672" xlink:href="#n"/>
  <use x="371.65625" y="672" xlink:href="#a"/>
  <use x="390.648438" y="672" xlink:href="#m"/>
  <use x="407.242188" y="672" xlink:href="#c"/>
 </g>
</svg>
