<?xml version="1.0" encoding="UTF-8"?>
<svg width="700pt" height="700pt" version="1.1" viewBox="0 0 700 700" xmlns="http://www.w3.org/2000/svg" xmlns:xlink="http://www.w3.org/1999/xlink">

 <g>
  <path d="m245.88 289.77c-3.8203-4.332-5.0742-10.359-3.2969-15.855 1.7734-5.4961 6.3125-9.6484 11.945-10.93 5.6289-1.2852 11.52 0.49609 15.5 4.6836l73.832 80.652v-297.97c0.11328-5.7734 3.2578-11.062 8.2773-13.918 5.0195-2.8555 11.172-2.8555 16.191 0 5.0195 2.8555 8.1641 8.1445 8.2773 13.918v297.97l73.832-80.652c3.9688-4.2461 9.8867-6.0742 15.555-4.8008 5.668 1.2734 10.238 5.457 12.008 10.992 1.7656 5.5352 0.46875 11.59-3.4141 15.914l-102.28 111.72c-3.0977 3.3945-7.4805 5.3281-12.074 5.3281-4.5977 0-8.9805-1.9336-12.074-5.3281zm359.93 37.793c-4.3438 0.003906-8.5039 1.7305-11.574 4.8008-3.0703 3.0703-4.7969 7.2344-4.7969 11.578v149.33h-478.87v-149.33c-0.11328-5.7773-3.2578-11.062-8.2773-13.918-5.0234-2.8555-11.176-2.8555-16.195 0-5.0195 2.8555-8.1641 8.1406-8.2773 13.918v165.66c-0.003906 4.3438 1.7148 8.5117 4.7891 11.59 3.0703 3.0742 7.2383 4.8008 11.582 4.7969h511.62c4.3398 0.007813 8.5039-1.7148 11.578-4.7852 3.0703-3.0664 4.793-7.2305 4.793-11.57v-165.69c-0.003907-4.3438-1.7305-8.5039-4.8008-11.578-3.0664-3.0703-7.2305-4.7969-11.57-4.8008z" fill-rule="evenodd"/>
  <use x="70" y="653.332031" xlink:href="#u"/>
  <use x="92.832031" y="653.332031" xlink:href="#d"/>
  <use x="108.175781" y="653.332031" xlink:href="#b"/>
  <use x="129.273437" y="653.332031" xlink:href="#h"/>
  <use x="150.269531" y="653.332031" xlink:href="#a"/>
  <use x="165.140625" y="653.332031" xlink:href="#b"/>
  <use x="186.242188" y="653.332031" xlink:href="#g"/>
  <use x="219.34375" y="653.332031" xlink:href="#k"/>
  <use x="241.613281" y="653.332031" xlink:href="#f"/>
  <use x="272.722656" y="653.332031" xlink:href="#j"/>
  <use x="296.800781" y="653.332031" xlink:href="#e"/>
  <use x="318.949219" y="653.332031" xlink:href="#g"/>
  <use x="341.21875" y="653.332031" xlink:href="#i"/>
  <use x="362.714844" y="653.332031" xlink:href="#t"/>
  <use x="391.457031" y="653.332031" xlink:href="#i"/>
  <use x="402.121094" y="653.332031" xlink:href="#f"/>
  <use x="422.398437" y="653.332031" xlink:href="#h"/>
  <use x="443.394531" y="653.332031" xlink:href="#e"/>
  <use x="465.542969" y="653.332031" xlink:href="#a"/>
  <use x="480.414062" y="653.332031" xlink:href="#c"/>
  <use x="70" y="684.445312" xlink:href="#s"/>
  <use x="83.535156" y="684.445312" xlink:href="#d"/>
  <use x="98.878906" y="684.445312" xlink:href="#c"/>
  <use x="120.25" y="684.445312" xlink:href="#r"/>
  <use x="163.5" y="684.445312" xlink:href="#a"/>
  <use x="178.371094" y="684.445312" xlink:href="#q"/>
  <use x="200.519531" y="684.445312" xlink:href="#b"/>
  <use x="232.453125" y="684.445312" xlink:href="#p"/>
  <use x="258.488281" y="684.445312" xlink:href="#c"/>
  <use x="279.863281" y="684.445312" xlink:href="#o"/>
  <use x="302.011719" y="684.445312" xlink:href="#e"/>
  <use x="334.992188" y="684.445312" xlink:href="#n"/>
  <use x="357.792969" y="684.445312" xlink:href="#d"/>
  <use x="373.136719" y="684.445312" xlink:href="#c"/>
  <use x="394.507812" y="684.445312" xlink:href="#m"/>
  <use x="405.171875" y="684.445312" xlink:href="#b"/>
  <use x="426.273437" y="684.445312" xlink:href="#l"/>
  <use x="444.714844" y="684.445312" xlink:href="#a"/>
 </g>
</svg>
