<?xml version="1.0" encoding="UTF-8"?>
<svg width="700pt" height="700pt" version="1.1" viewBox="0 0 700 700" xmlns="http://www.w3.org/2000/svg" xmlns:xlink="http://www.w3.org/1999/xlink">

 <g>
  <path d="m357.18 43.062c-119.66 0-217 97.352-217 217 0 41.434 11.723 81.633 33.926 116.45l-35.152 92.344c-0.875 2.2891-0.28125 4.8711 1.5 6.5508 1.1484 1.0859 2.6445 1.6562 4.1562 1.6562 0.83594 0 1.6797-0.16797 2.4766-0.52734l86.023-38.5c36.535 25.547 79.363 39.027 124.08 39.027 119.66 0 217-97.352 217-217-0.003906-119.65-97.352-217-217.01-217zm-13.645 277.46h-91.629v-120.91h88.676v21.41l-63.984-0.003907v25.676h58.734v21h-58.734v31.09h66.938zm117.3 0h-25.258l-49.23-85.793v85.793h-23.535l0.003906-120.91h26.48l48.004 84.309v-84.309h23.535z"/>
  <use x="70" y="644" xlink:href="#v"/>
  <use x="90.550781" y="644" xlink:href="#c"/>
  <use x="104.359375" y="644" xlink:href="#a"/>
  <use x="123.347656" y="644" xlink:href="#k"/>
  <use x="142.242188" y="644" xlink:href="#b"/>
  <use x="155.628906" y="644" xlink:href="#a"/>
  <use x="174.617188" y="644" xlink:href="#f"/>
  <use x="204.410156" y="644" xlink:href="#j"/>
  <use x="224.453125" y="644" xlink:href="#i"/>
  <use x="252.453125" y="644" xlink:href="#e"/>
  <use x="269.046875" y="644" xlink:href="#d"/>
  <use x="288.285156" y="644" xlink:href="#c"/>
  <use x="302.09375" y="644" xlink:href="#u"/>
  <use x="322.136719" y="644" xlink:href="#h"/>
  <use x="342.070312" y="644" xlink:href="#t"/>
  <use x="368.484375" y="644" xlink:href="#f"/>
  <use x="388.527344" y="644" xlink:href="#a"/>
  <use x="407.515625" y="644" xlink:href="#s"/>
  <use x="417.117188" y="644" xlink:href="#g"/>
  <use x="426.710938" y="644" xlink:href="#e"/>
  <use x="443.3125" y="644" xlink:href="#b"/>
  <use x="456.695312" y="644" xlink:href="#g"/>
  <use x="70" y="672" xlink:href="#r"/>
  <use x="82.183594" y="672" xlink:href="#c"/>
  <use x="95.992188" y="672" xlink:href="#d"/>
  <use x="115.226562" y="672" xlink:href="#q"/>
  <use x="154.152344" y="672" xlink:href="#b"/>
  <use x="167.535156" y="672" xlink:href="#p"/>
  <use x="187.46875" y="672" xlink:href="#a"/>
  <use x="216.207031" y="672" xlink:href="#o"/>
  <use x="239.640625" y="672" xlink:href="#d"/>
  <use x="258.878906" y="672" xlink:href="#h"/>
  <use x="278.8125" y="672" xlink:href="#n"/>
  <use x="308.492188" y="672" xlink:href="#m"/>
  <use x="329.015625" y="672" xlink:href="#c"/>
  <use x="342.820312" y="672" xlink:href="#d"/>
  <use x="362.058594" y="672" xlink:href="#l"/>
  <use x="371.65625" y="672" xlink:href="#a"/>
  <use x="390.648438" y="672" xlink:href="#e"/>
  <use x="407.242188" y="672" xlink:href="#b"/>
 </g>
</svg>
