<?xml version="1.0" encoding="UTF-8"?>
<svg width="700pt" height="700pt" version="1.1" viewBox="0 0 700 700" xmlns="http://www.w3.org/2000/svg" xmlns:xlink="http://www.w3.org/1999/xlink">

 <g>
  <path d="m393.37 320.2 97.301-97.309 97.332 97.309z"/>
  <path d="m112 413.96 103.8-267.93h47.074l108.62 267.93h-49.086l-27.355-71.605h-109.43l-26.555 71.605zm168.97-108.21-24.949-65.973c-8.5859-23.871-14.348-40.359-17.297-49.48-4.5586 16.625-9.3906 31.652-14.48 45.059l-25.75 70.398z"/>
  <use x="70" y="644" xlink:href="#w"/>
  <use x="90.550781" y="644" xlink:href="#d"/>
  <use x="104.359375" y="644" xlink:href="#a"/>
  <use x="123.347656" y="644" xlink:href="#l"/>
  <use x="142.242188" y="644" xlink:href="#c"/>
  <use x="155.628906" y="644" xlink:href="#a"/>
  <use x="174.617188" y="644" xlink:href="#k"/>
  <use x="204.410156" y="644" xlink:href="#j"/>
  <use x="224.453125" y="644" xlink:href="#i"/>
  <use x="252.453125" y="644" xlink:href="#h"/>
  <use x="272.726562" y="644" xlink:href="#a"/>
  <use x="291.71875" y="644" xlink:href="#b"/>
  <use x="310.953125" y="644" xlink:href="#e"/>
  <use x="330.886719" y="644" xlink:href="#g"/>
  <use x="360.679688" y="644" xlink:href="#v"/>
  <use x="382.238281" y="644" xlink:href="#b"/>
  <use x="401.476562" y="644" xlink:href="#e"/>
  <use x="421.40625" y="644" xlink:href="#g"/>
  <use x="451.199219" y="644" xlink:href="#u"/>
  <use x="472.898437" y="644" xlink:href="#t"/>
  <use x="482.492187" y="644" xlink:href="#f"/>
  <use x="70" y="672" xlink:href="#s"/>
  <use x="82.183594" y="672" xlink:href="#d"/>
  <use x="95.992188" y="672" xlink:href="#b"/>
  <use x="115.226562" y="672" xlink:href="#f"/>
  <use x="154.152344" y="672" xlink:href="#c"/>
  <use x="167.535156" y="672" xlink:href="#r"/>
  <use x="187.46875" y="672" xlink:href="#a"/>
  <use x="216.207031" y="672" xlink:href="#q"/>
  <use x="239.640625" y="672" xlink:href="#b"/>
  <use x="258.878906" y="672" xlink:href="#p"/>
  <use x="278.8125" y="672" xlink:href="#e"/>
  <use x="308.492188" y="672" xlink:href="#o"/>
  <use x="329.015625" y="672" xlink:href="#d"/>
  <use x="342.820312" y="672" xlink:href="#b"/>
  <use x="362.058594" y="672" xlink:href="#n"/>
  <use x="371.65625" y="672" xlink:href="#a"/>
  <use x="390.648438" y="672" xlink:href="#m"/>
  <use x="407.242188" y="672" xlink:href="#c"/>
 </g>
</svg>
