<?xml version="1.0" encoding="UTF-8"?>
<svg width="700pt" height="700pt" version="1.1" viewBox="0 0 700 700" xmlns="http://www.w3.org/2000/svg" xmlns:xlink="http://www.w3.org/1999/xlink">

 <g>
  <path d="m221.65 240.8h32.758l-16.406-53.258z"/>
  <path d="m282.8 78.398h-112c-11.883 0-23.277 4.7227-31.68 13.125-8.4023 8.3984-13.121 19.793-13.121 31.676v380.8l134.4-134.4h100.8zm-21.504 184.8h-46.535l-10.363 33.602h-22.398l44.801-145.6h22.398l44.801 145.6h-22.398z"/>
  <path d="m529.2 78.398h-224l78.402 291.2h145.6c11.883 0 23.277-4.7227 31.68-13.125 8.4023-8.3984 13.121-19.793 13.121-31.676v-201.6c0-11.883-4.7188-23.277-13.121-31.676-8.4023-8.4023-19.797-13.125-31.68-13.125zm-78.398 72.801h22.398v22.398l-22.398 0.003906zm67.199 145.6c-20.457 0.17969-40.73-3.8242-59.586-11.762-16.379 7.7656-34.285 11.785-52.414 11.762v-22.402c9.4727 0.023437 18.898-1.2969 28-3.918-17.305-13.777-28-31.863-28-52.078h22.398c0 16.129 11.648 30.855 29.793 41.215 22.645-13.297 36.797-37.363 37.41-63.617h-89.602v-22.398h112v22.398c-0.34766 28.598-13.426 55.555-35.672 73.527 11.609 3.2617 23.613 4.9023 35.672 4.8711z"/>
  <use x="70" y="644" xlink:href="#u"/>
  <use x="90.550781" y="644" xlink:href="#c"/>
  <use x="104.359375" y="644" xlink:href="#d"/>
  <use x="123.347656" y="644" xlink:href="#b"/>
  <use x="142.242188" y="644" xlink:href="#a"/>
  <use x="155.628906" y="644" xlink:href="#d"/>
  <use x="174.617188" y="644" xlink:href="#k"/>
  <use x="204.410156" y="644" xlink:href="#j"/>
  <use x="224.453125" y="644" xlink:href="#i"/>
  <use x="252.453125" y="644" xlink:href="#f"/>
  <use x="272.972656" y="644" xlink:href="#c"/>
  <use x="286.78125" y="644" xlink:href="#b"/>
  <use x="305.675781" y="644" xlink:href="#t"/>
  <use x="322.34375" y="644" xlink:href="#b"/>
  <use x="341.234375" y="644" xlink:href="#h"/>
  <use x="361.171875" y="644" xlink:href="#a"/>
  <use x="374.554688" y="644" xlink:href="#b"/>
  <use x="403.195312" y="644" xlink:href="#s"/>
  <use x="424.894531" y="644" xlink:href="#c"/>
  <use x="448.453125" y="644" xlink:href="#r"/>
  <use x="471.695312" y="644" xlink:href="#g"/>
  <use x="491.625" y="644" xlink:href="#a"/>
  <use x="505.011719" y="644" xlink:href="#a"/>
  <use x="518.398437" y="644" xlink:href="#b"/>
  <use x="70" y="672" xlink:href="#q"/>
  <use x="82.183594" y="672" xlink:href="#c"/>
  <use x="95.992188" y="672" xlink:href="#e"/>
  <use x="115.226562" y="672" xlink:href="#p"/>
  <use x="154.152344" y="672" xlink:href="#a"/>
  <use x="167.535156" y="672" xlink:href="#o"/>
  <use x="187.46875" y="672" xlink:href="#d"/>
  <use x="216.207031" y="672" xlink:href="#n"/>
  <use x="239.640625" y="672" xlink:href="#e"/>
  <use x="258.878906" y="672" xlink:href="#g"/>
  <use x="278.8125" y="672" xlink:href="#h"/>
  <use x="308.492188" y="672" xlink:href="#f"/>
  <use x="329.015625" y="672" xlink:href="#c"/>
  <use x="342.820312" y="672" xlink:href="#e"/>
  <use x="362.058594" y="672" xlink:href="#m"/>
  <use x="371.65625" y="672" xlink:href="#d"/>
  <use x="390.648438" y="672" xlink:href="#l"/>
  <use x="407.242188" y="672" xlink:href="#a"/>
 </g>
</svg>
