<?xml version="1.0" encoding="UTF-8"?>
<svg width="700pt" height="700pt" version="1.1" viewBox="0 0 700 700" xmlns="http://www.w3.org/2000/svg" xmlns:xlink="http://www.w3.org/1999/xlink">

 <g>
  <path d="m191.38 495.78c-22.316 0-37.375-17.598-37.375-43.805v-352.53c0-35.691 30.664-54.355 62.273-36.711l319.37 177.68c15.531 8.6094 24.406 21.477 24.406 35.293 0 13.812-8.875 26.68-24.406 35.34l-319.37 177.68c-8.4492 4.6797-16.797 7.043-24.898 7.043zm0-413.33c-9.2188 0-10.637 10.652-10.637 17.027v352.52c0 6.3711 1.418 17.023 10.637 17.023 3.4531 0 7.5273-1.2695 11.926-3.6836l319.42-177.73c6.5117-3.6094 10.586-8.1641 10.586-11.871s-4.0742-8.2148-10.586-11.871l-319.42-177.68c-4.3984-2.4141-8.4727-3.7344-11.926-3.7344z" fill-rule="evenodd"/>
  <use x="70" y="644" xlink:href="#u"/>
  <use x="90.550781" y="644" xlink:href="#c"/>
  <use x="104.359375" y="644" xlink:href="#a"/>
  <use x="123.347656" y="644" xlink:href="#e"/>
  <use x="142.242188" y="644" xlink:href="#b"/>
  <use x="155.628906" y="644" xlink:href="#a"/>
  <use x="174.617188" y="644" xlink:href="#j"/>
  <use x="204.410156" y="644" xlink:href="#i"/>
  <use x="224.453125" y="644" xlink:href="#h"/>
  <use x="252.453125" y="644" xlink:href="#g"/>
  <use x="280.3125" y="644" xlink:href="#e"/>
  <use x="299.210938" y="644" xlink:href="#t"/>
  <use x="327.015625" y="644" xlink:href="#s"/>
  <use x="346.117188" y="644" xlink:href="#a"/>
  <use x="365.109375" y="644" xlink:href="#f"/>
  <use x="70" y="672" xlink:href="#r"/>
  <use x="82.183594" y="672" xlink:href="#c"/>
  <use x="95.992188" y="672" xlink:href="#d"/>
  <use x="115.226562" y="672" xlink:href="#q"/>
  <use x="154.152344" y="672" xlink:href="#b"/>
  <use x="167.535156" y="672" xlink:href="#p"/>
  <use x="187.46875" y="672" xlink:href="#a"/>
  <use x="216.207031" y="672" xlink:href="#o"/>
  <use x="239.640625" y="672" xlink:href="#d"/>
  <use x="258.878906" y="672" xlink:href="#n"/>
  <use x="278.8125" y="672" xlink:href="#f"/>
  <use x="308.492188" y="672" xlink:href="#m"/>
  <use x="329.015625" y="672" xlink:href="#c"/>
  <use x="342.820312" y="672" xlink:href="#d"/>
  <use x="362.058594" y="672" xlink:href="#l"/>
  <use x="371.65625" y="672" xlink:href="#a"/>
  <use x="390.648438" y="672" xlink:href="#k"/>
  <use x="407.242188" y="672" xlink:href="#b"/>
 </g>
</svg>
