<?xml version="1.0" encoding="UTF-8"?>
<svg width="700pt" height="700pt" version="1.1" viewBox="0 0 700 700" xmlns="http://www.w3.org/2000/svg" xmlns:xlink="http://www.w3.org/1999/xlink">

 <g>
  <path d="m226.7 137.73v-43.258h-28v43.262c-30.574 6.4688-53.602 33.656-53.602 66.129 0 32.48 23.027 59.668 53.609 66.129v190.2h28l-0.003906-190.2c30.582-6.4688 53.602-33.652 53.602-66.129 0-32.484-23.027-59.66-53.605-66.129zm-14 105.74c-21.836 0-39.602-17.77-39.602-39.609 0-21.84 17.77-39.609 39.602-39.609 21.84 0 39.609 17.77 39.609 39.609-0.003907 21.84-17.766 39.609-39.609 39.609z"/>
  <path d="m367.01 284.66v-190.19h-28v190.19c-30.582 6.4609-53.609 33.652-53.609 66.129 0 32.48 23.027 59.664 53.602 66.137v43.266h28v-43.266c30.582-6.4688 53.609-33.656 53.609-66.137 0.003907-32.477-23.02-59.66-53.602-66.129zm-14.004 105.74c-21.836 0-39.602-17.77-39.602-39.609 0-21.836 17.77-39.602 39.602-39.602 21.84 0 39.609 17.77 39.609 39.602 0 21.844-17.766 39.609-39.609 39.609z"/>
  <path d="m560.94 231.34c0-32.48-23.027-59.664-53.613-66.129v-70.738h-28v70.746c-30.574 6.4688-53.598 33.652-53.598 66.125 0 32.48 23.027 59.664 53.602 66.137v162.71h28v-162.72c30.582-6.4688 53.609-33.656 53.609-66.137zm-67.609 39.609c-21.836 0-39.602-17.77-39.602-39.609s17.77-39.602 39.602-39.602c21.84 0 39.609 17.762 39.609 39.602s-17.77 39.609-39.609 39.609z"/>
  <use x="70" y="644" xlink:href="#t"/>
  <use x="90.550781" y="644" xlink:href="#b"/>
  <use x="104.359375" y="644" xlink:href="#a"/>
  <use x="123.347656" y="644" xlink:href="#d"/>
  <use x="142.242188" y="644" xlink:href="#c"/>
  <use x="155.628906" y="644" xlink:href="#a"/>
  <use x="174.617188" y="644" xlink:href="#l"/>
  <use x="204.410156" y="644" xlink:href="#k"/>
  <use x="224.453125" y="644" xlink:href="#j"/>
  <use x="252.453125" y="644" xlink:href="#i"/>
  <use x="272.617188" y="644" xlink:href="#c"/>
  <use x="286" y="644" xlink:href="#a"/>
  <use x="304.992188" y="644" xlink:href="#h"/>
  <use x="317.171875" y="644" xlink:href="#d"/>
  <use x="336.070312" y="644" xlink:href="#f"/>
  <use x="365.75" y="644" xlink:href="#g"/>
  <use x="386.273438" y="644" xlink:href="#d"/>
  <use x="405.164062" y="644" xlink:href="#b"/>
  <use x="418.976562" y="644" xlink:href="#f"/>
  <use x="438.90625" y="644" xlink:href="#d"/>
  <use x="457.804687" y="644" xlink:href="#b"/>
  <use x="471.609375" y="644" xlink:href="#e"/>
  <use x="490.847656" y="644" xlink:href="#s"/>
  <use x="70" y="672" xlink:href="#h"/>
  <use x="82.183594" y="672" xlink:href="#b"/>
  <use x="95.992188" y="672" xlink:href="#e"/>
  <use x="115.226562" y="672" xlink:href="#r"/>
  <use x="154.152344" y="672" xlink:href="#c"/>
  <use x="167.535156" y="672" xlink:href="#q"/>
  <use x="187.46875" y="672" xlink:href="#a"/>
  <use x="216.207031" y="672" xlink:href="#p"/>
  <use x="239.640625" y="672" xlink:href="#e"/>
  <use x="258.878906" y="672" xlink:href="#o"/>
  <use x="278.8125" y="672" xlink:href="#f"/>
  <use x="308.492188" y="672" xlink:href="#g"/>
  <use x="329.015625" y="672" xlink:href="#b"/>
  <use x="342.820312" y="672" xlink:href="#e"/>
  <use x="362.058594" y="672" xlink:href="#n"/>
  <use x="371.65625" y="672" xlink:href="#a"/>
  <use x="390.648438" y="672" xlink:href="#m"/>
  <use x="407.242188" y="672" xlink:href="#c"/>
 </g>
</svg>
